<svg xmlns="http://www.w3.org/2000/svg" viewBox="0 0 512 512" width="512" height="512" preserveAspectRatio="xMidYMid meet" style="width: 100%; height: 100%; transform: translate3d(0px, 0px, 0px); content-visibility: visible;"><defs><clipPath id="__lottie_element_115"><rect width="512" height="512" x="0" y="0"></rect></clipPath></defs><g clip-path="url(#__lottie_element_115)"><g style="display: block;" transform="matrix(1,0,0,1,0,0)" opacity="1"><g opacity="1" transform="matrix(1,0,0,1,254.6929931640625,256.4620056152344)"><path fill="rgb(41,170,225)" fill-opacity="1" d=" M130.30099487304688,-143.94900512695312 C130.83900451660156,-133.08700561523438 131.1909942626953,-122.125 133.48300170898438,-111.5260009765625 C136.1300048828125,-99.28399658203125 145.63499450683594,-92.9010009765625 156.55599975585938,-88.44400024414062 C167.30599975585938,-84.05699920654297 178.49099731445312,-80.72799682617188 188.39700317382812,-74.34700012207031 C195.61000061035156,-69.7020034790039 198.13800048828125,-58.70600128173828 195.3040008544922,-51.13399887084961 C191.16799926757812,-40.08300018310547 183.9530029296875,-30.858999252319336 178.23599243164062,-20.75200080871582 C174.63299560546875,-14.380999565124512 170.04100036621094,-8.437000274658203 170.1649932861328,-0.453000009059906 C170.27699279785156,6.771999835968018 174.32000732421875,12.29699993133545 177.61000061035156,18.07699966430664 C181.593994140625,25.075000762939453 186.49400329589844,31.551000595092773 190.4980010986328,38.53900146484375 C193.84100341796875,44.375 196.3159942626953,50.540000915527344 196.36399841308594,57.625 C196.41000366210938,64.19000244140625 193.55099487304688,68.66400146484375 188.61700439453125,72.36100006103516 C181.57000732421875,77.64199829101562 173.31100463867188,80.39299774169922 165.24400329589844,83.47799682617188 C158.15499877929688,86.18900299072266 150.9219970703125,88.78700256347656 144.64500427246094,92.93499755859375 C135.63499450683594,98.88800048828125 133.35499572753906,108.56700134277344 132.20700073242188,118.73699951171875 C130.95199584960938,129.85699462890625 131.33200073242188,141.0970001220703 129.33999633789062,152.15899658203125 C127.58999633789062,161.8730010986328 119.25900268554688,168.1020050048828 109.41400146484375,168.28399658203125 C96.06600189208984,168.52999877929688 83.86499786376953,163.73399353027344 71.22200012207031,160.927001953125 C57.10200119018555,157.79200744628906 45.91600036621094,162.2480010986328 36.9010009765625,173.78399658203125 C30.22599983215332,182.32699584960938 23.736000061035156,191.16900634765625 15.194999694824219,198.12600708007812 C4.0269999504089355,207.2239990234375 -9.0649995803833,206.0050048828125 -18.302000045776367,194.83599853515625 C-24.822999954223633,186.9530029296875 -31.37299919128418,179.08900451660156 -37.689998626708984,171.04400634765625 C-46.457000732421875,159.87899780273438 -58.31700134277344,158.8000030517578 -70.84400177001953,161.12399291992188 C-80.375,162.89199829101562 -89.58699798583984,166.4530029296875 -99.13700103759766,168.0240020751953 C-113.78299713134766,170.4340057373047 -125.73899841308594,166.59300231933594 -128.62399291992188,147.32899475097656 C-130.33700561523438,135.89199829101562 -130.625,124.3740005493164 -131.73199462890625,112.91400146484375 C-133.052001953125,99.25499725341797 -142.12100219726562,91.94100189208984 -154.28900146484375,87.41799926757812 C-164.55999755859375,83.5989990234375 -174.90499877929688,80.00199890136719 -184.37100219726562,74.16400146484375 C-195.9810028076172,67.00299835205078 -196.73500061035156,55.30799865722656 -192.2570037841797,44.70600128173828 C-188.13699340820312,34.95000076293945 -181.78500366210938,26.458999633789062 -176.0330047607422,17.67300033569336 C-168.05299377441406,5.484000205993652 -167.53799438476562,-6.211999893188477 -175.5989990234375,-18.676000595092773 C-181.84300231933594,-28.329999923706055 -189.2530059814453,-37.369998931884766 -193.1280059814453,-48.43600082397461 C-198.13800048828125,-62.744998931884766 -193.31199645996094,-73.55899810791016 -179.2220001220703,-79.39299774169922 C-169.95199584960938,-83.2300033569336 -160.52200317382812,-86.69200134277344 -151.33799743652344,-90.71900177001953 C-139.8990020751953,-95.73600006103516 -132.25,-101.23200225830078 -131.427001953125,-119.55699920654297 C-130.89100646972656,-131.48500061035156 -130.7030029296875,-143.62100219726562 -127.49400329589844,-155.29400634765625 C-123.41000366210938,-170.14700317382812 -112.87799835205078,-171.9510040283203 -101.3489990234375,-169.99899291992188 C-89.2969970703125,-167.95799255371094 -77.53199768066406,-164.28599548339844 -65.54399871826172,-161.7949981689453 C-53.86399841308594,-159.3679962158203 -45.316001892089844,-165.0050048828125 -37.7130012512207,-173.26300048828125 C-29.10099983215332,-182.61500549316406 -22.274999618530273,-193.48899841308594 -12.156000137329102,-201.60699462890625 C-5.1539998054504395,-207.2239990234375 8.116999626159668,-206.43499755859375 14.465999603271484,-200.86000061035156 C22.32900047302246,-193.9550018310547 28.40399932861328,-185.48399353027344 35.19900131225586,-177.63699340820312 C41.310001373291016,-170.57899475097656 47.01599884033203,-162.65199279785156 57.145999908447266,-161.11900329589844 C60.72800064086914,-160.57699584960938 64.62899780273438,-161.0570068359375 68.21499633789062,-161.8419952392578 C78.0199966430664,-163.98699951171875 87.6719970703125,-166.86099243164062 97.51200103759766,-168.8000030517578 C102.29299926757812,-169.74099731445312 107.28199768066406,-171.14300537109375 112.1989974975586,-170.23599243164062 C125.6500015258789,-167.75399780273438 128.71299743652344,-159.72300720214844 130.2729949951172,-148.4409942626953 C130.4770050048828,-146.9709930419922 130.30099487304688,-145.447998046875 130.30099487304688,-143.94900512695312z"></path></g></g><g style="display: block;" transform="matrix(0.550000011920929,0,0,0.550000011920929,115.19999694824219,131.1999969482422)" opacity="1"><g opacity="1" transform="matrix(1,0,0,1,144.57000732421875,319.84100341796875)"><path fill="rgb(255,255,255)" fill-opacity="1" d=" M90.70899963378906,103.375 C80.77799987792969,93.20700073242188 71.69599914550781,82.2770004272461 62.28799819946289,71.64099884033203 C11.97700023651123,14.767000198364258 -38.2599983215332,-42.172000885009766 -88.52100372314453,-99.08999633789062 C-89.39900207519531,-100.08399963378906 -90.25199890136719,-101.10099792480469 -91.13200378417969,-102.125 C-90.37699890136719,-103.375 -89.19200134277344,-102.75800323486328 -88.26100158691406,-102.75900268554688 C-51.816001892089844,-102.7969970703125 -15.371000289916992,-102.77200317382812 21.072999954223633,-102.83699798583984 C23.46299934387207,-102.84100341796875 24.722999572753906,-102.4749984741211 25.582000732421875,-99.81999969482422 C47.19599914550781,-32.974998474121094 68.93699645996094,33.827999114990234 90.64399719238281,100.64299774169922 C90.88899993896484,101.39399719238281 90.9739990234375,102.1989974975586 91.13300323486328,102.97799682617188 C90.99299621582031,103.11199951171875 90.85199737548828,103.24400329589844 90.70899963378906,103.375z"></path></g><g opacity="1" transform="matrix(1,0,0,1,369.60101318359375,320.0870056152344)"><path fill="rgb(255,255,255)" fill-opacity="1" d=" M-91.30899810791016,102.73300170898438 C-86.177001953125,86.70500183105469 -81.09600067138672,70.65899658203125 -75.90299987792969,54.650001525878906 C-59.21799850463867,3.2070000171661377 -42.48699951171875,-48.220001220703125 -25.80299949645996,-99.66300201416016 C-25.174999237060547,-101.5979995727539 -24.895000457763672,-103.12999725341797 -22.04599952697754,-103.12100219726562 C15.196000099182129,-102.99400329589844 52.43899917602539,-103.03500366210938 89.68199920654297,-103.0260009765625 C90.03700256347656,-103.0260009765625 90.39399719238281,-102.91300201416016 91.30899810791016,-102.75700378417969 C86.54100036621094,-97.33799743652344 82.03399658203125,-92.2030029296875 77.51200103759766,-87.08100128173828 C22.49799919128418,-24.77899932861328 -32.518001556396484,37.52199935913086 -87.54499816894531,99.81199645996094 C-88.58200073242188,100.98600006103516 -89.76899719238281,102.0270004272461 -90.88700103759766,103.12999725341797 C-91.02899932861328,102.9990005493164 -91.16899871826172,102.86699676513672 -91.30899810791016,102.73300170898438z"></path></g><g opacity="1" transform="matrix(1,0,0,1,256.99700927734375,312.3760070800781)"><path fill="rgb(255,255,255)" fill-opacity="1" d=" M-0.4269999861717224,95.16300201416016 C-21.007999420166016,31.766000747680664 -41.5890007019043,-31.6299991607666 -62.23099899291992,-95.21499633789062 C-62.23099899291992,-95.21499633789062 62.231998443603516,-95.21499633789062 62.231998443603516,-95.21499633789062 C41.584999084472656,-31.61400032043457 20.99799919128418,31.801000595092773 0.4129999876022339,95.21499633789062 C0.13199999928474426,95.197998046875 -0.1469999998807907,95.18000030517578 -0.4269999861717224,95.16300201416016z"></path></g><g opacity="1" transform="matrix(1,0,0,1,107.11399841308594,146.15499877929688)"><path fill="rgb(255,255,255)" fill-opacity="1" d=" M23.886999130249023,-46.55400085449219 C28.895000457763672,-31.086000442504883 33.638999938964844,-16.381999969482422 38.41699981689453,-1.687999963760376 C43.29100036621094,13.300000190734863 48.18600082397461,28.2810001373291 53.099998474121094,43.25600051879883 C53.75699996948242,45.257999420166016 54.202999114990234,46.55400085449219 51.053001403808594,46.54399871826172 C16.4950008392334,46.4370002746582 -18.06399917602539,46.46900177001953 -52.62200164794922,46.457000732421875 C-52.88199996948242,46.457000732421875 -53.141998291015625,46.362998962402344 -54.20199966430664,46.159000396728516 C-28.14900016784668,15.22700023651123 -2.3529999256134033,-15.399999618530273 23.886999130249023,-46.55400085449219z"></path></g><g opacity="1" transform="matrix(1,0,0,1,407.00201416015625,145.96099853515625)"><path fill="rgb(255,255,255)" fill-opacity="1" d=" M-24.003000259399414,-46.354000091552734 C2.2309999465942383,-15.211999893188477 27.957000732421875,15.32800006866455 54.09199905395508,46.354000091552734 C54.09199905395508,46.354000091552734 -54.09199905395508,46.354000091552734 -54.09199905395508,46.354000091552734 C-44.11800003051758,15.623000144958496 -34.196998596191406,-14.946000099182129 -24.003000259399414,-46.354000091552734z"></path></g><g opacity="1" transform="matrix(1,0,0,1,256.7980041503906,151.45700073242188)"><path fill="rgb(255,255,255)" fill-opacity="1" d=" M52.91699981689453,41.0620002746582 C52.91699981689453,41.0620002746582 -52.1349983215332,41.0620002746582 -52.1349983215332,41.0620002746582 C-52.91699981689453,40.069000244140625 -52.066001892089844,39.51599884033203 -51.678001403808594,38.91999816894531 C-34.98899841308594,13.340999603271484 -18.27899932861328,-12.225000381469727 -1.590000033378601,-37.80400085449219 C-0.5989999771118164,-39.323001861572266 -0.0560000017285347,-41.0620002746582 1.7649999856948853,-38.25699996948242 C18.68199920654297,-12.194000244140625 35.70000076293945,13.805000305175781 52.676998138427734,39.82899856567383 C52.80400085449219,40.02299880981445 52.77899932861328,40.316001892089844 52.91699981689453,41.0620002746582z"></path></g><g opacity="1" transform="matrix(1,0,0,1,197.73899841308594,134.3820037841797)"><path fill="rgb(255,255,255)" fill-opacity="1" d=" M-14.991999626159668,45.7130012512207 C-25.011999130249023,14.845000267028809 -34.81100082397461,-15.33899974822998 -44.67100143432617,-45.7130012512207 C-44.67100143432617,-45.7130012512207 44.67100143432617,-45.7130012512207 44.67100143432617,-45.7130012512207 C24.733999252319336,-15.161999702453613 5.081999778747559,14.95199966430664 -14.991999626159668,45.7130012512207z"></path></g><g opacity="1" transform="matrix(1,0,0,1,316.2869873046875,134.4929962158203)"><path fill="rgb(255,255,255)" fill-opacity="1" d=" M14.96399974822998,45.60200119018555 C-5.127999782562256,14.819000244140625 -24.70400047302246,-15.17300033569336 -44.56399917602539,-45.60200119018555 C-44.56399917602539,-45.60200119018555 44.564998626708984,-45.60200119018555 44.564998626708984,-45.60200119018555 C34.78499984741211,-15.470000267028809 24.996999740600586,14.689000129699707 14.96399974822998,45.60200119018555z"></path></g><g opacity="1" transform="matrix(1,0,0,1,235.80799865722656,423.5539855957031)"><path fill="rgb(255,255,255)" fill-opacity="1" d=" M-0.10599999874830246,-0.7360000014305115 C0.4339999854564667,-0.43799999356269836 0.5299999713897705,0.22599999606609344 0.16200000047683716,0.42800000309944153 C-0.3959999978542328,0.7350000143051147 -0.4269999861717224,0.05700000002980232 -0.5299999713897705,-0.3370000123977661 C-0.3869999945163727,-0.46799999475479126 -0.2460000067949295,-0.6019999980926514 -0.10599999874830246,-0.7360000014305115z"></path></g><g opacity="1" transform="matrix(1,0,0,1,278.1860046386719,423.5539855957031)"><path fill="rgb(255,255,255)" fill-opacity="1" d=" M0.5289999842643738,-0.3370000123977661 C0.42800000309944153,0.05700000002980232 0.39500001072883606,0.734000027179718 -0.16300000250339508,0.4259999990463257 C-0.5289999842643738,0.2240000069141388 -0.4339999854564667,-0.43700000643730164 0.10599999874830246,-0.734000027179718 C0.24500000476837158,-0.6000000238418579 0.3869999945163727,-0.46799999475479126 0.5289999842643738,-0.3370000123977661z"></path></g></g></g></svg>